<?xml version="1.0" encoding="UTF-8" standalone="no"?>
<!-- Created with Inkscape (http://www.inkscape.org/) -->

<svg
   xmlns:dc="http://purl.org/dc/elements/1.1/"
   xmlns:cc="http://creativecommons.org/ns#"
   xmlns:rdf="http://www.w3.org/1999/02/22-rdf-syntax-ns#"
   xmlns:svg="http://www.w3.org/2000/svg"
   xmlns="http://www.w3.org/2000/svg"
   xmlns:sodipodi="http://sodipodi.sourceforge.net/DTD/sodipodi-0.dtd"
   xmlns:inkscape="http://www.inkscape.org/namespaces/inkscape"
   width="938.72095"
   height="400.00006"
   viewBox="0 0 248.36991 105.83336"
   version="1.1"
   id="svg8"
   inkscape:version="0.92.4 5da689c313, 2019-01-14"
   sodipodi:docname="logo_black.svg">
  <defs
     id="defs2" />
  <sodipodi:namedview
     id="base"
     pagecolor="#808080"
     bordercolor="#666666"
     borderopacity="1.0"
     inkscape:pageopacity="0"
     inkscape:pageshadow="2"
     inkscape:zoom="0.49497475"
     inkscape:cx="344.67159"
     inkscape:cy="236.28379"
     inkscape:document-units="px"
     inkscape:current-layer="layer1"
     showgrid="true"
     units="px"
     inkscape:snap-smooth-nodes="true"
     inkscape:snap-center="true"
     showguides="false"
     inkscape:guide-bbox="true"
     inkscape:window-width="1366"
     inkscape:window-height="734"
     inkscape:window-x="0"
     inkscape:window-y="0"
     inkscape:window-maximized="0"
     inkscape:lockguides="true">
    <inkscape:grid
       type="xygrid"
       id="grid4518"
       spacingx="1.0583333"
       spacingy="1.0583333"
       empspacing="8"
       originx="118.37649"
       originy="-40.216664" />
    <sodipodi:guide
       position="46.756752,76.332288"
       orientation="1,0"
       id="guide4528"
       inkscape:locked="true" />
    <sodipodi:guide
       position="46.75675,76.332288"
       orientation="0,1"
       id="guide4530"
       inkscape:locked="true" />
    <sodipodi:guide
       position="80.623417,74.215628"
       orientation="0,1"
       id="guide4532"
       inkscape:locked="true" />
    <sodipodi:guide
       position="55.223418,42.465624"
       orientation="1,0"
       id="guide4805"
       inkscape:locked="true" />
    <sodipodi:guide
       position="61.573417,42.465624"
       orientation="1,0"
       id="guide4807"
       inkscape:locked="true" />
    <sodipodi:guide
       position="67.923417,42.465624"
       orientation="1,0"
       id="guide4809"
       inkscape:locked="true" />
  </sodipodi:namedview>
  <metadata
     id="metadata5">
    <rdf:RDF>
      <cc:Work
         rdf:about="">
        <dc:format>image/svg+xml</dc:format>
        <dc:type
           rdf:resource="http://purl.org/dc/dcmitype/StillImage" />
        <dc:title></dc:title>
      </cc:Work>
    </rdf:RDF>
  </metadata>
  <g
     inkscape:label="Layer 1"
     inkscape:groupmode="layer"
     id="layer1"
     transform="translate(118.3765,-150.94998)">
    <g
       id="logo_black"
       inkscape:label="#g4847">
      <path
         inkscape:export-ydpi="96"
         inkscape:export-xdpi="96"
         sodipodi:nodetypes="cccccccccccccc"
         inkscape:connector-curvature="0"
         id="path4520"
         d="m 41.274999,178.46666 -8.466666,-8.46667 -12.7,-1e-5 10.583332,10.58333 14.816667,10e-6 -32.808332,31.75 35.983334,35.98335 6.349997,-6.35002 c 0,0 6.350002,12.70001 21.166669,12.70001 0,0 -14.816667,0 -14.816667,-20.10833 l -6.350001,6.34999 -29.633333,-28.575 33.866666,-33.86666 z"
         style="fill:#000000;stroke:#000000;stroke-width:4.23333359;stroke-linecap:butt;stroke-linejoin:miter;stroke-miterlimit:4;stroke-dasharray:none;stroke-opacity:1" />
      <path
         inkscape:export-ydpi="96"
         inkscape:export-xdpi="96"
         sodipodi:nodetypes="ccccccccccccc"
         inkscape:connector-curvature="0"
         id="path4522"
         d="m 118.53333,178.46665 -50.799998,1e-5 -10e-7,33.86666 40.216669,39.15833 v -13.75833 l -27.516672,-25.4 v -27.51666 h 29.633342 l -8.46666,8.46667 h 16.93334 l 6.34999,-6.35 h -14.81666 z"
         style="fill:#000000;stroke:#000000;stroke-width:4.23333359;stroke-linecap:butt;stroke-linejoin:miter;stroke-miterlimit:4;stroke-dasharray:none;stroke-opacity:1" />
      <path
         inkscape:export-ydpi="96"
         inkscape:export-xdpi="96"
         sodipodi:nodetypes="cscsc"
         inkscape:connector-curvature="0"
         id="path4524"
         d="m 59.266663,203.86665 c -2.116665,0 -14.816664,2.11667 -14.816664,8.46667 0,6.35 12.699999,8.46667 14.816664,8.46667 -8.466665,0 -21.166665,-2.11667 -21.166665,-8.46667 0,-6.35 12.7,-8.46667 21.166665,-8.46667 z"
         style="fill:#000000;stroke:#000000;stroke-width:4.23333359;stroke-linecap:butt;stroke-linejoin:miter;stroke-miterlimit:4;stroke-dasharray:none;stroke-opacity:1" />
      <path
         style="fill:#000000;stroke:#000000;stroke-width:4.23333359;stroke-linecap:butt;stroke-linejoin:miter;stroke-miterlimit:4;stroke-dasharray:none;stroke-opacity:1"
         d="m 102.65834,153.06665 c -2.11667,0 -14.816676,2.11667 -14.816676,8.46667 0,6.35 12.700006,8.46667 14.816676,8.46667 -8.466677,0 -21.166677,-2.11667 -21.166677,-8.46667 0,-6.35 12.7,-8.46667 21.166677,-8.46667 z"
         id="path4811"
         inkscape:connector-curvature="0"
         sodipodi:nodetypes="cscsc"
         inkscape:export-xdpi="96"
         inkscape:export-ydpi="96" />
    </g>
    <g
       id="logo_white"
       transform="translate(-128.05834,1.0559323e-5)"
       style="fill:#ffffff;stroke:#ffffff"
       inkscape:label="#g4857">
      <path
         style="fill:#ffffff;stroke:#ffffff;stroke-width:4.23333359;stroke-linecap:butt;stroke-linejoin:miter;stroke-miterlimit:4;stroke-dasharray:none;stroke-opacity:1"
         d="m 41.274999,178.46666 -8.466666,-8.46667 -12.7,-1e-5 10.583332,10.58333 14.816667,10e-6 -32.808332,31.75 35.983334,35.98335 6.349997,-6.35002 c 0,0 6.350002,12.70001 21.166669,12.70001 0,0 -14.816667,0 -14.816667,-20.10833 l -6.350001,6.34999 -29.633333,-28.575 33.866666,-33.86666 z"
         id="path4849"
         inkscape:connector-curvature="0"
         sodipodi:nodetypes="cccccccccccccc"
         inkscape:export-xdpi="96"
         inkscape:export-ydpi="96" />
      <path
         style="fill:#ffffff;stroke:#ffffff;stroke-width:4.23333359;stroke-linecap:butt;stroke-linejoin:miter;stroke-miterlimit:4;stroke-dasharray:none;stroke-opacity:1"
         d="m 118.53333,178.46665 -50.799998,1e-5 -10e-7,33.86666 40.216669,39.15833 v -13.75833 l -27.516672,-25.4 v -27.51666 h 29.633342 l -8.46666,8.46667 h 16.93334 l 6.34999,-6.35 h -14.81666 z"
         id="path4851"
         inkscape:connector-curvature="0"
         sodipodi:nodetypes="ccccccccccccc"
         inkscape:export-xdpi="96"
         inkscape:export-ydpi="96" />
      <path
         style="fill:#ffffff;stroke:#ffffff;stroke-width:4.23333359;stroke-linecap:butt;stroke-linejoin:miter;stroke-miterlimit:4;stroke-dasharray:none;stroke-opacity:1"
         d="m 59.266663,203.86665 c -2.116665,0 -14.816664,2.11667 -14.816664,8.46667 0,6.35 12.699999,8.46667 14.816664,8.46667 -8.466665,0 -21.166665,-2.11667 -21.166665,-8.46667 0,-6.35 12.7,-8.46667 21.166665,-8.46667 z"
         id="path4853"
         inkscape:connector-curvature="0"
         sodipodi:nodetypes="cscsc"
         inkscape:export-xdpi="96"
         inkscape:export-ydpi="96" />
      <path
         inkscape:export-ydpi="96"
         inkscape:export-xdpi="96"
         sodipodi:nodetypes="cscsc"
         inkscape:connector-curvature="0"
         id="path4855"
         d="m 102.65834,153.06665 c -2.11667,0 -14.816676,2.11667 -14.816676,8.46667 0,6.35 12.700006,8.46667 14.816676,8.46667 -8.466677,0 -21.166677,-2.11667 -21.166677,-8.46667 0,-6.35 12.7,-8.46667 21.166677,-8.46667 z"
         style="fill:#ffffff;stroke:#ffffff;stroke-width:4.23333359;stroke-linecap:butt;stroke-linejoin:miter;stroke-miterlimit:4;stroke-dasharray:none;stroke-opacity:1" />
    </g>
  </g>
</svg>
